<?xml version="1.0" encoding="UTF-8"?>
<svg width="120" height="40" viewBox="0 0 120 40" fill="none" xmlns="http://www.w3.org/2000/svg">
  <path d="M14.8 8H22.6C27.4 8 30.2 11.2 30.2 14.8C30.2 18.4 27.4 21.6 22.6 21.6H19.6V30H14.8V8ZM22.2 17.6C24.2 17.6 25.4 16.4 25.4 14.8C25.4 13.2 24.2 12 22.2 12H19.6V17.6H22.2Z" fill="#1BA3FF"/>
  <path d="M33.92 8H38.72V18.4C38.72 20.8 40.32 22.4 42.72 22.4C45.12 22.4 46.72 20.8 46.72 18.4V8H51.52V18.4C51.52 23.6 47.92 27.2 42.72 27.2C37.52 27.2 33.92 23.6 33.92 18.4V8Z" fill="#1BA3FF"/>
  <path d="M57.36 8H62.16V27H57.36V8Z" fill="#1BA3FF"/>
  <path d="M70.08 8H74.88V27H70.08V8ZM70.08 8H78.48C83.28 8 86.08 11.2 86.08 14.8C86.08 18.4 83.28 21.6 78.48 21.6H74.88V8ZM78.08 17.6C80.08 17.6 81.28 16.4 81.28 14.8C81.28 13.2 80.08 12 78.08 12H74.88V17.6H78.08Z" fill="#1BA3FF"/>
  <path d="M89.76 8H94.56V18.4C94.56 20.8 96.16 22.4 98.56 22.4C100.96 22.4 102.56 20.8 102.56 18.4V8H107.36V18.4C107.36 23.6 103.76 27.2 98.56 27.2C93.36 27.2 89.76 23.6 89.76 18.4V8Z" fill="#1BA3FF"/>
  <path d="M109.44.8H114.24V4.8H109.44V.8Z" fill="#1BA3FF"/>
</svg>