<?xml version="1.0" encoding="UTF-8"?>
<svg width="120" height="40" viewBox="0 0 120 40" fill="none" xmlns="http://www.w3.org/2000/svg">
  <path d="M17.6 30H11.76V10.56H18.16C20.4533 10.56 22.4 10.9067 24 11.6C25.6 12.2933 26.8 13.3067 27.6 14.64C28.4 15.9733 28.8 17.6 28.8 19.52C28.8 21.44 28.4 23.0667 27.6 24.4C26.8 25.7333 25.6 26.7467 24 27.44C22.4 28.1333 20.32 28.48 17.76 28.48L17.6 30ZM15.2 26.4H17.6C19.2 26.4 20.5067 26.2133 21.52 25.84C22.5333 25.4667 23.28 24.88 23.76 24.08C24.24 23.28 24.48 22.2133 24.48 20.88V18.16C24.48 16.8267 24.24 15.76 23.76 14.96C23.28 14.16 22.5333 13.5733 21.52 13.2C20.5067 12.8267 19.2 12.64 17.6 12.64H15.2V26.4Z" fill="black"/>
  <path d="M41.4 30.4C39.3067 30.4 37.5733 29.92 36.2 28.96C34.8267 28 33.8133 26.6667 33.16 24.96C32.5067 23.2533 32.18 21.28 32.18 19.04C32.18 16.8 32.5067 14.8267 33.16 13.12C33.8133 11.4133 34.8267 10.08 36.2 9.12C37.5733 8.16 39.3067 7.68 41.4 7.68C43.4933 7.68 45.2267 8.16 46.6 9.12C47.9733 10.08 49 11.4133 49.68 13.12C50.36 14.8267 50.7 16.8 50.7 19.04C50.7 21.28 50.36 23.2533 49.68 24.96C49 26.6667 47.9733 28 46.6 28.96C45.2267 29.92 43.4933 30.4 41.4 30.4ZM41.4 28.16C42.84 28.16 44 27.84 44.88 27.2C45.76 26.56 46.4 25.6533 46.8 24.48C47.2 23.3067 47.4 21.8933 47.4 20.24V17.84C47.4 16.1867 47.2 14.7733 46.8 13.6C46.4 12.4267 45.76 11.52 44.88 10.88C44 10.24 42.84 9.92 41.4 9.92C39.96 9.92 38.8 10.24 37.92 10.88C37.04 11.52 36.4 12.4267 36 13.6C35.6 14.7733 35.4 16.1867 35.4 17.84V20.24C35.4 21.8933 35.6 23.3067 36 24.48C36.4 25.6533 37.04 26.56 37.92 27.2C38.8 27.84 39.96 28.16 41.4 28.16Z" fill="black"/>
  <path d="M62.7969 30H56.9969V10.56H60.3969V13.68L60.5569 13.36C60.8236 12.8267 61.1969 12.2933 61.6769 11.76C62.1569 11.2267 62.7836 10.8 63.5569 10.48C64.3303 10.1333 65.3303 9.96 66.5569 9.96C67.1036 9.96 67.6369 10 68.1569 10.08C68.6769 10.16 69.0369 10.24 69.2369 10.32L68.4369 13.52C68.0503 13.3867 67.6636 13.28 67.2769 13.2C66.8903 13.12 66.4636 13.08 65.9969 13.08C65.0636 13.08 64.2503 13.28 63.5569 13.68C62.8636 14.0533 62.3303 14.56 61.9569 15.2C61.5836 15.84 61.3969 16.56 61.3969 17.36V30H62.7969V30Z" fill="#367BF5"/>
  <path d="M80.5375 30.4C78.2441 30.4 76.3375 29.8933 74.8175 28.88C73.2975 27.8667 72.1775 26.4267 71.4575 24.56C70.7375 22.6933 70.3775 20.4533 70.3775 17.84V19.04C70.3775 16.5333 70.7775 14.3733 71.5775 12.56C72.3775 10.7467 73.5508 9.36 75.0975 8.4C76.6441 7.44 78.4841 6.96 80.6175 6.96C81.8975 6.96 83.1375 7.16 84.3375 7.56C85.5375 7.96 86.5775 8.6 87.4575 9.48L86.0975 11.56C85.4308 10.9467 84.6708 10.48 83.8175 10.16C82.9641 9.84 81.9375 9.68 80.7375 9.68C79.1908 9.68 77.8708 10.0267 76.7775 10.72C75.6841 11.4133 74.8441 12.4267 74.2575 13.76C73.6708 15.0933 73.3775 16.72 73.3775 18.64V17.72C73.3775 19.64 73.6708 21.2267 74.2575 22.48C74.8441 23.7333 75.6708 24.6933 76.7375 25.36C77.8041 26.0267 79.0841 26.36 80.5775 26.36C81.3241 26.36 82.1108 26.2933 82.9375 26.16C83.7641 26.0267 84.5375 25.7867 85.2575 25.44C85.9775 25.0933 86.5775 24.6267 87.0575 24.04L88.4175 26.04C87.7775 26.76 86.9775 27.36 86.0175 27.84C85.0575 28.32 84.0175 28.6667 82.8975 28.88C81.7775 29.0933 80.6441 29.2 79.4975 29.2L80.5375 30.4Z" fill="#367BF5"/>
  <path d="M90.475 30V10.56H93.875V13.68L93.715 13.36C94.1383 12.5333 94.9117 11.76 96.035 11.04C97.1583 10.32 98.5383 9.96 100.155 9.96C102.102 9.96 103.622 10.48 104.715 11.52C105.808 12.5333 106.355 14.1333 106.355 16.32V30H102.955V17.2C102.955 15.76 102.622 14.6667 101.955 13.92C101.288 13.1733 100.262 12.8 98.875 12.8C97.7783 12.8 96.8183 13.04 95.995 13.52C95.1717 14 94.5383 14.6667 94.095 15.52C93.6517 16.3733 93.4783 17.3333 93.475 18.4V30H90.475Z" fill="#367BF5"/>
  <path d="M110.025 30V6.56H113.425V17.92L112.905 21.44L113.225 24.96V30H110.025Z" fill="#367BF5"/>
  <path d="M119.484 30.4C118.444 30.4 117.564 30.0667 116.844 29.4C116.124 28.7333 115.764 27.8267 115.764 26.68C115.764 25.5333 116.124 24.6267 116.844 23.96C117.564 23.2933 118.444 22.96 119.484 22.96C120.524 22.96 121.404 23.2933 122.124 23.96C122.844 24.6267 123.204 25.5333 123.204 26.68C123.204 27.8267 122.844 28.7333 122.124 29.4C121.404 30.0667 120.524 30.4 119.484 30.4Z" fill="#367BF5"/>
</svg>