<?xml version="1.0" encoding="UTF-8"?>
<svg width="600" height="400" viewBox="0 0 600 400" fill="none" xmlns="http://www.w3.org/2000/svg">
  <g filter="url(#filter0_d)">
    <path d="M450.21 280.06C470.15 242.87 458.63 195.71 424.65 172.41C392.12 150.08 347.94 151.42 316.44 175.18L295.39 190.95C291.67 193.73 286.83 194.27 282.64 192.37L248.44 176.48C235.28 169.93 219.12 175.38 213.21 188.84L207.04 202.87C203.19 212.01 206.03 222.63 214.35 228.11L283.48 275.34C289.57 279.56 295.22 284.21 300.41 289.26L346.41 333.9C356.38 343.65 371.71 346.21 384.21 339.34L415.97 321.68C430.37 314.04 443.21 298.33 450.21 280.06Z" fill="url(#paint0_linear)"/>
    <path d="M409.73 146.06C432.99 168.73 432.37 206.12 408.32 228.02L382.7 251.09C379.37 254.08 377.49 258.39 377.49 262.92V303.55C377.49 315.34 368.31 324.92 356.52 325.41L342.72 325.98C331.49 326.45 322.4 317.36 322.93 306.13L324.12 280.67C324.35 275.93 322.19 271.47 318.32 268.78L268.86 234.82C259.98 228.87 249.24 230.95 242.89 240.07L234.63 251.96C224.63 266.46 232.21 286.55 250.34 290.49L354.63 315.77C364.04 318.01 374.1 315.25 380.73 308.26L400.5 287.48C412.45 274.92 431.97 255.3 443.72 241.16C476.3 201.93 467.16 142.07 423.21 114.13L371.12 80.16C349.09 65.72 320.42 70.11 304.05 90.3L273.55 129.06C269.64 134.04 267.86 140.35 268.6 146.62L271.34 168.78C271.99 174.27 269.46 179.75 264.65 182.6L238.14 199.27C229.32 204.66 218.08 201.95 212.6 193.2L206.93 184.13C202.38 176.91 204.6 167.35 211.76 162.82L281.81 118.67C298.05 108.39 309.13 91.97 312.45 73.13L317.91 43.13C320.84 26.63 335.35 15.34 352.08 16.15L372.84 17.16C390.63 18.03 405.01 31.08 407.47 48.7L413.44 91.41C415.13 103.25 410.66 115.25 402.12 123.59L381.44 143.73C374.4 150.59 377.6 162.63 387.27 164.8L391.7 165.8C399.1 167.45 406.66 164.21 409.73 146.06Z" fill="url(#paint1_linear)"/>
  </g>
  <defs>
    <filter id="filter0_d" x="0" y="0" width="600" height="400" filterUnits="userSpaceOnUse" color-interpolation-filters="sRGB">
      <feFlood flood-opacity="0" result="BackgroundImageFix"/>
      <feColorMatrix in="SourceAlpha" type="matrix" values="0 0 0 0 0 0 0 0 0 0 0 0 0 0 0 0 0 0 127 0"/>
      <feOffset dy="4"/>
      <feGaussianBlur stdDeviation="15"/>
      <feColorMatrix type="matrix" values="0 0 0 0 0 0 0 0 0 0 0 0 0 0 0 0 0 0 0.25 0"/>
      <feBlend mode="normal" in2="BackgroundImageFix" result="effect1_dropShadow"/>
      <feBlend mode="normal" in="SourceGraphic" in2="effect1_dropShadow" result="shape"/>
    </filter>
    <linearGradient id="paint0_linear" x1="450" y1="170" x2="250" y2="350" gradientUnits="userSpaceOnUse">
      <stop stop-color="#8A93B1"/>
      <stop offset="1" stop-color="#B4C2DE"/>
    </linearGradient>
    <linearGradient id="paint1_linear" x1="400" y1="50" x2="250" y2="250" gradientUnits="userSpaceOnUse">
      <stop stop-color="#9BAFCB"/>
      <stop offset="1" stop-color="#C3D8F0"/>
    </linearGradient>
  </defs>
</svg>